<svg width="930" height="716" viewBox="0 0 930 716" fill="none" xmlns="http://www.w3.org/2000/svg">

<g id="Section 4">


<g id="Section 1"><g id="Group 2085664959">
<path id="Vector 4" d="M326.734 569.5V410.506C326.734 406.335 328.364 402.328 331.275 399.34L379.194 350.16C382.105 347.172 383.734 343.165 383.734 338.994V321.5C383.734 312.663 390.898 305.5 399.734 305.5H477.107C481.35 305.5 485.42 303.814 488.421 300.814L625.234 164" stroke="#A2A2A2" stroke-linecap="round" stroke-dasharray="2 4"/>
<path id="Vector 3" d="M141 356L789 356" stroke="#A2A2A2" stroke-linecap="round" stroke-dasharray="2 4"/>
<path id="Vector 5" d="M277 144L378.614 320C381.472 324.95 386.754 328 392.47 328H580.233C589.069 328 596.233 335.163 596.233 344V575" stroke="#A2A2A2" stroke-linecap="round" stroke-dasharray="2 4"/>
<path id="Vector 6" d="M179.734 530L299.048 410.686C302.049 407.686 303.734 403.616 303.734 399.373V356.5V274.5C303.734 265.663 310.898 258.5 319.734 258.5H698.234H767.002" stroke="#A2A2A2" stroke-linecap="round" stroke-dasharray="2 4"/>
<path id="Vector 8" opacity="0.3" d="M531.732 155V410C531.732 418.837 524.569 426 515.732 426H281.732H162.5" stroke="#E8E8E8" stroke-linecap="round" stroke-dasharray="2 4"/>
</g><path id="Vector 9" d="M448.734 548.5L448.735 356.5V140.5" stroke="#A2A2A2" stroke-linecap="round" stroke-dasharray="2 4"/>


<g id="MARK">
<foreignObject x="329" y="338" width="37" height="65"><div xmlns="http://www.w3.org/1999/xhtml" style="backdrop-filter:blur(6px);clip-path:url(#bgblur_0_c3_169638_clip_path);height:100%;width:100%"></div></foreignObject><g id="datapoint-outer-ellipse" filter="url(#filter0_di_c3_169638)" data-figma-bg-blur-radius="12">
<circle cx="347.5" cy="356.5" r="6.5" fill="#F8F8F8" fill-opacity="0.01" shape-rendering="crispEdges"/>
<circle cx="347.5" cy="356.5" r="6.5" fill="#121212" fill-opacity="0.3" shape-rendering="crispEdges"/>
<circle cx="347.5" cy="356.5" r="6" stroke="url(#paint0_linear_c3_169638)" stroke-opacity="0.25" shape-rendering="crispEdges"/>
</g>
<circle id="datapoint-inner-ellipse" cx="347.5" cy="356.5" r="3.25" fill="#F8F8F8"/>
</g>
<g id="MARK_2">
<foreignObject x="330" y="241" width="36" height="64"><div xmlns="http://www.w3.org/1999/xhtml" style="backdrop-filter:blur(6px);clip-path:url(#bgblur_1_c3_169638_clip_path);height:100%;width:100%"></div></foreignObject><g id="datapoint-outer-ellipse_2" filter="url(#filter1_di_c3_169638)" data-figma-bg-blur-radius="12">
<circle cx="348" cy="259" r="6" fill="#F8F8F8" fill-opacity="0.01" shape-rendering="crispEdges"/>
<circle cx="348" cy="259" r="6" fill="#121212" fill-opacity="0.3" shape-rendering="crispEdges"/>
<circle cx="348" cy="259" r="5.5" stroke="url(#paint1_linear_c3_169638)" stroke-opacity="0.25" shape-rendering="crispEdges"/>
</g>
<circle id="datapoint-inner-ellipse_2" cx="348" cy="259" r="3" fill="#F8F8F8"/>
</g>

<g id="MARK_3">
<foreignObject x="513.734" y="339" width="36" height="64"><div xmlns="http://www.w3.org/1999/xhtml" style="backdrop-filter:blur(6px);clip-path:url(#bgblur_2_c3_169638_clip_path);height:100%;width:100%"></div></foreignObject><g id="datapoint-outer-ellipse_3" filter="url(#filter2_di_c3_169638)" data-figma-bg-blur-radius="12">
<circle cx="531.734" cy="357" r="6" fill="#F8F8F8" fill-opacity="0.01" shape-rendering="crispEdges"/>
<circle cx="531.734" cy="357" r="6" fill="#121212" fill-opacity="0.3" shape-rendering="crispEdges"/>
<circle cx="531.734" cy="357" r="5.5" stroke="url(#paint2_linear_c3_169638)" stroke-opacity="0.25" shape-rendering="crispEdges"/>
</g>
<circle id="datapoint-inner-ellipse_3" cx="531.734" cy="357" r="3" fill="#F8F8F8"/>
</g>
<g id="MARK_4">
<foreignObject x="285.734" y="338" width="36" height="64"><div xmlns="http://www.w3.org/1999/xhtml" style="backdrop-filter:blur(6px);clip-path:url(#bgblur_3_c3_169638_clip_path);height:100%;width:100%"></div></foreignObject><g id="datapoint-outer-ellipse_4" filter="url(#filter3_di_c3_169638)" data-figma-bg-blur-radius="12">
<circle cx="303.734" cy="356" r="6" fill="#F8F8F8" fill-opacity="0.01" shape-rendering="crispEdges"/>
<circle cx="303.734" cy="356" r="6" fill="#121212" fill-opacity="0.3" shape-rendering="crispEdges"/>
<circle cx="303.734" cy="356" r="5.5" stroke="url(#paint3_linear_c3_169638)" stroke-opacity="0.25" shape-rendering="crispEdges"/>
</g>
<circle id="datapoint-inner-ellipse_4" cx="303.734" cy="356" r="3" fill="#F8F8F8"/>
</g>
<g id="MARK_5">
<foreignObject x="308.734" y="408" width="36" height="64"><div xmlns="http://www.w3.org/1999/xhtml" style="backdrop-filter:blur(6px);clip-path:url(#bgblur_4_c3_169638_clip_path);height:100%;width:100%"></div></foreignObject><g id="datapoint-outer-ellipse_5" filter="url(#filter4_di_c3_169638)" data-figma-bg-blur-radius="12">
<circle cx="326.734" cy="426" r="6" fill="#F8F8F8" fill-opacity="0.01" shape-rendering="crispEdges"/>
<circle cx="326.734" cy="426" r="6" fill="#121212" fill-opacity="0.3" shape-rendering="crispEdges"/>
<circle cx="326.734" cy="426" r="5.5" stroke="url(#paint4_linear_c3_169638)" stroke-opacity="0.25" shape-rendering="crispEdges"/>
</g>
<circle id="datapoint-inner-ellipse_5" cx="326.734" cy="426" r="3" fill="#F8F8F8"/>
</g>
<g id="MARK_6">
<foreignObject x="365.734" y="307" width="36" height="64"><div xmlns="http://www.w3.org/1999/xhtml" style="backdrop-filter:blur(6px);clip-path:url(#bgblur_5_c3_169638_clip_path);height:100%;width:100%"></div></foreignObject><g id="datapoint-outer-ellipse_6" filter="url(#filter5_di_c3_169638)" data-figma-bg-blur-radius="12">
<circle cx="383.734" cy="325" r="6" fill="#F8F8F8" fill-opacity="0.01" shape-rendering="crispEdges"/>
<circle cx="383.734" cy="325" r="6" fill="#121212" fill-opacity="0.3" shape-rendering="crispEdges"/>
<circle cx="383.734" cy="325" r="5.5" stroke="url(#paint5_linear_c3_169638)" stroke-opacity="0.25" shape-rendering="crispEdges"/>
</g>
<circle id="datapoint-inner-ellipse_6" cx="383.734" cy="325" r="3" fill="#F8F8F8"/>
</g>
<g id="MARK_7">
<foreignObject x="325.734" y="241" width="36" height="64"><div xmlns="http://www.w3.org/1999/xhtml" style="backdrop-filter:blur(6px);clip-path:url(#bgblur_6_c3_169638_clip_path);height:100%;width:100%"></div></foreignObject><g id="datapoint-outer-ellipse_7" filter="url(#filter6_di_c3_169638)" data-figma-bg-blur-radius="12">
<circle cx="343.734" cy="259" r="6" fill="#F8F8F8" fill-opacity="0.01" shape-rendering="crispEdges"/>
<circle cx="343.734" cy="259" r="6" fill="#121212" fill-opacity="0.3" shape-rendering="crispEdges"/>
<circle cx="343.734" cy="259" r="5.5" stroke="url(#paint6_linear_c3_169638)" stroke-opacity="0.25" shape-rendering="crispEdges"/>
</g>
<circle id="datapoint-inner-ellipse_7" cx="343.734" cy="259" r="3" fill="#F8F8F8"/>
</g>
<g id="MARK_8">
<foreignObject x="513.734" y="310" width="36" height="64"><div xmlns="http://www.w3.org/1999/xhtml" style="backdrop-filter:blur(6px);clip-path:url(#bgblur_7_c3_169638_clip_path);height:100%;width:100%"></div></foreignObject><g id="datapoint-outer-ellipse_8" filter="url(#filter7_di_c3_169638)" data-figma-bg-blur-radius="12">
<circle cx="531.734" cy="328" r="6" fill="#F8F8F8" fill-opacity="0.01" shape-rendering="crispEdges"/>
<circle cx="531.734" cy="328" r="6" fill="#121212" fill-opacity="0.3" shape-rendering="crispEdges"/>
<circle cx="531.734" cy="328" r="5.5" stroke="url(#paint7_linear_c3_169638)" stroke-opacity="0.25" shape-rendering="crispEdges"/>
</g>
<circle id="datapoint-inner-ellipse_8" cx="531.734" cy="328" r="3" fill="#F8F8F8"/>
</g>

<g id="MARK_9">
<foreignObject x="426.734" y="237" width="44" height="72"><div xmlns="http://www.w3.org/1999/xhtml" style="backdrop-filter:blur(6px);clip-path:url(#bgblur_8_c3_169638_clip_path);height:100%;width:100%"></div></foreignObject><g id="datapoint-outer-ellipse_9" filter="url(#filter8_di_c3_169638)" data-figma-bg-blur-radius="12">
<circle cx="448.734" cy="259" r="10" fill="#F8F8F8" fill-opacity="0.01" shape-rendering="crispEdges"/>
<circle cx="448.734" cy="259" r="10" fill="#121212" fill-opacity="0.3" shape-rendering="crispEdges"/>
<circle cx="448.734" cy="259" r="9.5" stroke="url(#paint8_linear_c3_169638)" stroke-opacity="0.25" shape-rendering="crispEdges"/>
</g>
<circle id="datapoint-inner-ellipse_9" cx="448.734" cy="259" r="5" fill="#F8F8F8"/>
</g>
<g id="MARK_10">
<foreignObject x="426.734" y="402" width="44" height="72"><div xmlns="http://www.w3.org/1999/xhtml" style="backdrop-filter:blur(6px);clip-path:url(#bgblur_9_c3_169638_clip_path);height:100%;width:100%"></div></foreignObject><g id="datapoint-outer-ellipse_10" filter="url(#filter9_di_c3_169638)" data-figma-bg-blur-radius="12">
<circle cx="448.734" cy="424" r="10" fill="#F8F8F8" fill-opacity="0.01" shape-rendering="crispEdges"/>
<circle cx="448.734" cy="424" r="10" fill="#121212" fill-opacity="0.3" shape-rendering="crispEdges"/>
<circle cx="448.734" cy="424" r="9.5" stroke="url(#paint9_linear_c3_169638)" stroke-opacity="0.25" shape-rendering="crispEdges"/>
</g>
<circle id="datapoint-inner-ellipse_10" cx="448.734" cy="424" r="5" fill="#F8F8F8"/>
</g>
<g id="Frame 2147238550" filter="url(#filter10_dd_c3_169638)">
<path d="M449 304.5C469.158 304.5 485.5 320.842 485.5 341C485.5 361.158 469.158 377.5 449 377.5C428.842 377.5 412.5 361.158 412.5 341C412.5 320.842 428.842 304.5 449 304.5Z" stroke="#454545" stroke-opacity="0.3" shape-rendering="crispEdges"/>
<foreignObject x="383" y="275" width="132" height="132"><div xmlns="http://www.w3.org/1999/xhtml" style="backdrop-filter:blur(17px);clip-path:url(#bgblur_10_c3_169638_clip_path);height:100%;width:100%"></div></foreignObject><g id="Frame 2147238548" filter="url(#filter11_iii_c3_169638)" data-figma-bg-blur-radius="34">
<path d="M417 341C417 323.327 431.327 309 449 309C466.673 309 481 323.327 481 341C481 358.673 466.673 373 449 373C431.327 373 417 358.673 417 341Z" fill="#454545"/>
<path d="M417 341C417 323.327 431.327 309 449 309C466.673 309 481 323.327 481 341C481 358.673 466.673 373 449 373C431.327 373 417 358.673 417 341Z" fill="url(#paint10_linear_c3_169638)"/>
<path d="M449 309.5C466.397 309.5 480.5 323.603 480.5 341C480.5 358.397 466.397 372.5 449 372.5C431.603 372.5 417.5 358.397 417.5 341C417.5 323.603 431.603 309.5 449 309.5Z" stroke="url(#paint11_linear_c3_169638)"/>
<path id="Vector (vector, 252.0, 18x14)" d="M459.591 339.26L458.38 338.857C458.197 338.795 458.057 338.646 458.004 338.459C457.854 337.926 457.68 337.4 457.47 336.887C457.417 336.759 457.317 336.655 457.19 336.597C456.826 336.429 456.456 336.275 456.084 336.13C455.859 336.043 455.709 335.828 455.709 335.587V332.472C455.709 332.154 455.451 331.896 455.134 331.896H454.253C453.984 331.896 453.751 332.084 453.692 332.347L453.179 334.655C453.11 334.964 452.805 335.159 452.494 335.101C450.212 334.676 447.855 334.66 445.505 335.097C445.194 335.154 444.889 334.96 444.82 334.651L444.308 332.347C444.25 332.084 444.016 331.896 443.747 331.896H442.867C442.549 331.896 442.292 332.154 442.292 332.472V335.59C442.292 335.83 442.142 336.045 441.917 336.132C441.547 336.275 441.178 336.429 440.81 336.597C440.684 336.655 440.583 336.759 440.53 336.888C440.32 337.4 440.147 337.926 439.996 338.459C439.944 338.646 439.804 338.795 439.62 338.857L438.409 339.26C437.909 339.427 437.5 339.996 437.5 340.522V344.355C437.5 344.882 437.909 345.451 438.409 345.617L439.622 346.022C439.806 346.083 439.946 346.233 439.998 346.419C440.146 346.945 440.317 347.47 440.53 347.989C440.583 348.119 440.684 348.223 440.811 348.281C446.277 350.8 452.121 350.625 457.19 348.281C457.317 348.223 457.417 348.119 457.47 347.99C457.683 347.47 457.854 346.946 458.002 346.419C458.055 346.233 458.194 346.083 458.378 346.022L459.591 345.617C460.091 345.451 460.501 344.882 460.501 344.355V340.522C460.501 339.996 460.091 339.427 459.591 339.26ZM445.167 342.678C445.167 343.208 444.738 343.637 444.208 343.637C443.679 343.637 443.25 343.208 443.25 342.678V340.282C443.25 339.752 443.679 339.324 444.208 339.324C444.738 339.324 445.167 339.752 445.167 340.282V342.678ZM451.396 346.656C451.396 346.973 451.139 347.231 450.821 347.231H447.179C446.862 347.231 446.604 346.973 446.604 346.656V346.368C446.604 346.051 446.862 345.793 447.179 345.793H450.821C451.139 345.793 451.396 346.051 451.396 346.368V346.656ZM454.75 342.678C454.75 343.208 454.322 343.637 453.792 343.637C453.262 343.637 452.834 343.208 452.834 342.678V340.282C452.834 339.752 453.262 339.324 453.792 339.324C454.322 339.324 454.75 339.752 454.75 340.282V342.678Z" fill="#686B6F"/>
</g>
</g>
<foreignObject x="333.734" y="173" width="230" height="96"><div xmlns="http://www.w3.org/1999/xhtml" style="backdrop-filter:blur(17px);clip-path:url(#bgblur_11_c3_169638_clip_path);height:100%;width:100%"></div></foreignObject><g id="engine-label-container" filter="url(#filter12_diii_c3_169638)" data-figma-bg-blur-radius="34">
<path d="M367.734 221C367.734 213.268 374.002 207 381.734 207H515.734C523.466 207 529.734 213.268 529.734 221C529.734 228.732 523.466 235 515.734 235H381.734C374.002 235 367.734 228.732 367.734 221Z" fill="white" shape-rendering="crispEdges"/>
<path d="M367.734 221C367.734 213.268 374.002 207 381.734 207H515.734C523.466 207 529.734 213.268 529.734 221C529.734 228.732 523.466 235 515.734 235H381.734C374.002 235 367.734 228.732 367.734 221Z" fill="url(#paint12_linear_c3_169638)" fill-opacity="0.3" shape-rendering="crispEdges"/>
<path d="M381.734 207.5H515.734C523.19 207.5 529.234 213.544 529.234 221C529.234 228.456 523.19 234.5 515.734 234.5H381.734C374.279 234.5 368.234 228.456 368.234 221C368.234 213.544 374.279 207.5 381.734 207.5Z" stroke="url(#paint13_linear_c3_169638)" shape-rendering="crispEdges"/>
<path id="engine-label-text" d="M381.115 217.141V215.818H388.995V217.141H385.818V226H384.287V217.141H381.115ZM392.24 226.154C391.488 226.154 390.84 225.993 390.297 225.672C389.756 225.347 389.339 224.891 389.044 224.305C388.752 223.715 388.606 223.024 388.606 222.232C388.606 221.449 388.752 220.76 389.044 220.163C389.339 219.567 389.75 219.101 390.277 218.766C390.807 218.432 391.427 218.264 392.136 218.264C392.567 218.264 392.985 218.335 393.389 218.478C393.793 218.621 394.156 218.844 394.478 219.149C394.799 219.454 395.053 219.85 395.238 220.337C395.424 220.821 395.517 221.41 395.517 222.102V222.629H389.446V221.516H394.06C394.06 221.125 393.981 220.778 393.821 220.477C393.662 220.172 393.439 219.931 393.15 219.756C392.865 219.58 392.53 219.492 392.146 219.492C391.728 219.492 391.364 219.595 391.052 219.8C390.744 220.003 390.505 220.268 390.336 220.596C390.171 220.921 390.088 221.274 390.088 221.655V222.525C390.088 223.035 390.177 223.469 390.356 223.827C390.539 224.185 390.792 224.459 391.117 224.648C391.442 224.833 391.821 224.926 392.255 224.926C392.537 224.926 392.794 224.886 393.026 224.807C393.258 224.724 393.459 224.601 393.628 224.439C393.797 224.277 393.926 224.076 394.015 223.837L395.422 224.091C395.31 224.505 395.107 224.868 394.816 225.18C394.527 225.488 394.164 225.728 393.727 225.901C393.293 226.07 392.797 226.154 392.24 226.154ZM398.093 215.818V226H396.606V215.818H398.093ZM402.824 226.154C402.071 226.154 401.423 225.993 400.88 225.672C400.339 225.347 399.922 224.891 399.627 224.305C399.335 223.715 399.189 223.024 399.189 222.232C399.189 221.449 399.335 220.76 399.627 220.163C399.922 219.567 400.333 219.101 400.86 218.766C401.39 218.432 402.01 218.264 402.719 218.264C403.15 218.264 403.568 218.335 403.972 218.478C404.376 218.621 404.739 218.844 405.061 219.149C405.382 219.454 405.636 219.85 405.821 220.337C406.007 220.821 406.1 221.41 406.1 222.102V222.629H400.03V221.516H404.643C404.643 221.125 404.564 220.778 404.405 220.477C404.245 220.172 404.022 219.931 403.733 219.756C403.448 219.58 403.114 219.492 402.729 219.492C402.312 219.492 401.947 219.595 401.635 219.8C401.327 220.003 401.089 220.268 400.919 220.596C400.754 220.921 400.671 221.274 400.671 221.655V222.525C400.671 223.035 400.76 223.469 400.939 223.827C401.122 224.185 401.375 224.459 401.7 224.648C402.025 224.833 402.404 224.926 402.839 224.926C403.12 224.926 403.377 224.886 403.609 224.807C403.841 224.724 404.042 224.601 404.211 224.439C404.38 224.277 404.509 224.076 404.598 223.837L406.005 224.091C405.893 224.505 405.691 224.868 405.399 225.18C405.111 225.488 404.748 225.728 404.31 225.901C403.876 226.07 403.38 226.154 402.824 226.154ZM410.391 229.023C409.784 229.023 409.262 228.943 408.825 228.784C408.391 228.625 408.036 228.415 407.761 228.153C407.486 227.891 407.28 227.604 407.144 227.293L408.422 226.766C408.512 226.911 408.631 227.066 408.78 227.228C408.933 227.394 409.138 227.535 409.397 227.651C409.658 227.767 409.995 227.825 410.406 227.825C410.969 227.825 411.435 227.687 411.803 227.412C412.171 227.14 412.355 226.706 412.355 226.109V224.608H412.26C412.171 224.77 412.041 224.951 411.872 225.15C411.707 225.349 411.478 225.521 411.186 225.667C410.895 225.813 410.515 225.886 410.048 225.886C409.445 225.886 408.901 225.745 408.417 225.463C407.937 225.178 407.555 224.759 407.274 224.205C406.995 223.648 406.856 222.964 406.856 222.152C406.856 221.34 406.994 220.644 407.269 220.064C407.547 219.484 407.928 219.04 408.412 218.732C408.896 218.42 409.445 218.264 410.058 218.264C410.532 218.264 410.915 218.344 411.206 218.503C411.498 218.659 411.725 218.841 411.887 219.05C412.053 219.259 412.181 219.442 412.27 219.602H412.38V218.364H413.836V226.169C413.836 226.825 413.684 227.364 413.379 227.785C413.074 228.206 412.661 228.517 412.141 228.719C411.624 228.922 411.041 229.023 410.391 229.023ZM410.376 224.653C410.804 224.653 411.165 224.553 411.46 224.354C411.758 224.152 411.983 223.864 412.136 223.489C412.292 223.112 412.37 222.659 412.37 222.132C412.37 221.618 412.293 221.166 412.141 220.775C411.988 220.384 411.765 220.079 411.47 219.86C411.175 219.638 410.81 219.527 410.376 219.527C409.929 219.527 409.556 219.643 409.257 219.875C408.959 220.104 408.734 220.415 408.581 220.81C408.432 221.204 408.358 221.645 408.358 222.132C408.358 222.633 408.434 223.072 408.586 223.45C408.739 223.827 408.964 224.122 409.262 224.335C409.564 224.547 409.935 224.653 410.376 224.653ZM415.27 226V218.364H416.707V219.577H416.786C416.925 219.166 417.171 218.843 417.522 218.607C417.877 218.369 418.278 218.249 418.725 218.249C418.818 218.249 418.927 218.253 419.053 218.259C419.182 218.266 419.284 218.274 419.356 218.284V219.706C419.297 219.689 419.191 219.671 419.038 219.651C418.886 219.628 418.733 219.616 418.581 219.616C418.23 219.616 417.916 219.691 417.641 219.84C417.37 219.986 417.154 220.19 416.995 220.452C416.836 220.71 416.756 221.005 416.756 221.337V226H415.27ZM422.237 226.169C421.753 226.169 421.315 226.08 420.924 225.901C420.533 225.718 420.223 225.455 419.995 225.11C419.769 224.765 419.657 224.343 419.657 223.842C419.657 223.411 419.739 223.057 419.905 222.778C420.071 222.5 420.295 222.28 420.576 222.117C420.858 221.955 421.173 221.832 421.521 221.749C421.869 221.666 422.224 221.603 422.585 221.56C423.042 221.507 423.413 221.464 423.698 221.431C423.984 221.395 424.191 221.337 424.32 221.257C424.449 221.178 424.514 221.048 424.514 220.869V220.835C424.514 220.4 424.391 220.064 424.146 219.825C423.904 219.587 423.543 219.467 423.062 219.467C422.562 219.467 422.167 219.578 421.879 219.8C421.594 220.019 421.397 220.263 421.287 220.531L419.89 220.213C420.056 219.749 420.298 219.375 420.616 219.089C420.938 218.801 421.307 218.592 421.725 218.463C422.142 218.33 422.582 218.264 423.042 218.264C423.347 218.264 423.67 218.301 424.012 218.374C424.356 218.443 424.678 218.572 424.976 218.761C425.278 218.95 425.525 219.22 425.717 219.572C425.909 219.92 426.005 220.372 426.005 220.929V226H424.554V224.956H424.494C424.398 225.148 424.254 225.337 424.061 225.523C423.869 225.708 423.622 225.862 423.321 225.985C423.019 226.108 422.658 226.169 422.237 226.169ZM422.56 224.976C422.971 224.976 423.322 224.895 423.614 224.732C423.909 224.57 424.133 224.358 424.285 224.096C424.441 223.831 424.519 223.547 424.519 223.246V222.261C424.466 222.314 424.363 222.364 424.211 222.411C424.061 222.454 423.891 222.492 423.698 222.525C423.506 222.555 423.319 222.583 423.137 222.609C422.954 222.633 422.802 222.652 422.679 222.669C422.391 222.705 422.127 222.767 421.889 222.853C421.653 222.939 421.465 223.063 421.322 223.226C421.183 223.385 421.113 223.597 421.113 223.862C421.113 224.23 421.249 224.509 421.521 224.697C421.793 224.883 422.139 224.976 422.56 224.976ZM427.425 226V218.364H428.852V219.607H428.947C429.106 219.186 429.366 218.857 429.727 218.622C430.088 218.384 430.521 218.264 431.025 218.264C431.535 218.264 431.963 218.384 432.307 218.622C432.655 218.861 432.912 219.189 433.078 219.607H433.157C433.34 219.199 433.63 218.874 434.027 218.632C434.425 218.387 434.899 218.264 435.449 218.264C436.142 218.264 436.707 218.481 437.145 218.915C437.585 219.35 437.806 220.004 437.806 220.879V226H436.319V221.018C436.319 220.501 436.179 220.127 435.897 219.895C435.615 219.663 435.279 219.547 434.888 219.547C434.404 219.547 434.027 219.696 433.759 219.994C433.491 220.289 433.356 220.669 433.356 221.133V226H431.875V220.924C431.875 220.51 431.746 220.177 431.487 219.925C431.228 219.673 430.892 219.547 430.478 219.547C430.196 219.547 429.936 219.621 429.697 219.771C429.462 219.916 429.271 220.12 429.126 220.382C428.983 220.644 428.912 220.947 428.912 221.292V226H427.425ZM443.87 221.466V226H442.383V218.364H443.81V219.607H443.905C444.08 219.202 444.355 218.877 444.73 218.632C445.108 218.387 445.583 218.264 446.157 218.264C446.677 218.264 447.133 218.374 447.524 218.592C447.915 218.808 448.218 219.129 448.434 219.557C448.649 219.984 448.757 220.513 448.757 221.143V226H447.27V221.322C447.27 220.768 447.126 220.336 446.838 220.024C446.55 219.709 446.153 219.552 445.65 219.552C445.305 219.552 444.998 219.626 444.73 219.776C444.465 219.925 444.254 220.143 444.099 220.432C443.946 220.717 443.87 221.062 443.87 221.466ZM453.407 226.154C452.691 226.154 452.066 225.99 451.533 225.662C450.999 225.334 450.585 224.875 450.29 224.285C449.995 223.695 449.847 223.005 449.847 222.217C449.847 221.424 449.995 220.732 450.29 220.138C450.585 219.545 450.999 219.085 451.533 218.756C452.066 218.428 452.691 218.264 453.407 218.264C454.123 218.264 454.748 218.428 455.281 218.756C455.815 219.085 456.229 219.545 456.524 220.138C456.819 220.732 456.967 221.424 456.967 222.217C456.967 223.005 456.819 223.695 456.524 224.285C456.229 224.875 455.815 225.334 455.281 225.662C454.748 225.99 454.123 226.154 453.407 226.154ZM453.412 224.906C453.876 224.906 454.261 224.784 454.566 224.538C454.87 224.293 455.096 223.967 455.242 223.559C455.391 223.151 455.465 222.702 455.465 222.212C455.465 221.724 455.391 221.277 455.242 220.869C455.096 220.458 454.87 220.129 454.566 219.88C454.261 219.631 453.876 219.507 453.412 219.507C452.945 219.507 452.557 219.631 452.249 219.88C451.944 220.129 451.717 220.458 451.568 220.869C451.422 221.277 451.349 221.724 451.349 222.212C451.349 222.702 451.422 223.151 451.568 223.559C451.717 223.967 451.944 224.293 452.249 224.538C452.557 224.784 452.945 224.906 453.412 224.906ZM461.631 218.364V219.557H457.46V218.364H461.631ZM458.578 216.534H460.065V223.758C460.065 224.046 460.108 224.263 460.194 224.409C460.28 224.552 460.391 224.649 460.527 224.702C460.666 224.752 460.817 224.777 460.979 224.777C461.099 224.777 461.203 224.769 461.293 224.752C461.382 224.736 461.452 224.722 461.501 224.712L461.77 225.94C461.684 225.973 461.561 226.007 461.402 226.04C461.243 226.076 461.044 226.096 460.805 226.099C460.414 226.106 460.05 226.036 459.712 225.891C459.374 225.745 459.1 225.519 458.891 225.214C458.683 224.91 458.578 224.527 458.578 224.066V216.534ZM462.715 226V218.364H464.202V226H462.715ZM463.466 217.185C463.207 217.185 462.985 217.099 462.8 216.927C462.617 216.751 462.526 216.542 462.526 216.3C462.526 216.055 462.617 215.846 462.8 215.674C462.985 215.498 463.207 215.411 463.466 215.411C463.724 215.411 463.945 215.498 464.127 215.674C464.313 215.846 464.405 216.055 464.405 216.3C464.405 216.542 464.313 216.751 464.127 216.927C463.945 217.099 463.724 217.185 463.466 217.185ZM469.276 218.364V219.557H464.96V218.364H469.276ZM466.144 226V217.479C466.144 217.001 466.248 216.605 466.457 216.29C466.666 215.972 466.942 215.735 467.287 215.58C467.632 215.42 468.006 215.341 468.411 215.341C468.709 215.341 468.964 215.366 469.176 215.415C469.388 215.462 469.546 215.505 469.648 215.545L469.3 216.748C469.231 216.728 469.141 216.705 469.032 216.678C468.923 216.648 468.79 216.634 468.634 216.634C468.273 216.634 468.015 216.723 467.859 216.902C467.706 217.081 467.63 217.339 467.63 217.678V226H466.144ZM470.249 226V218.364H471.736V226H470.249ZM471 217.185C470.742 217.185 470.519 217.099 470.334 216.927C470.152 216.751 470.06 216.542 470.06 216.3C470.06 216.055 470.152 215.846 470.334 215.674C470.519 215.498 470.742 215.411 471 215.411C471.259 215.411 471.479 215.498 471.661 215.674C471.847 215.846 471.94 216.055 471.94 216.3C471.94 216.542 471.847 216.751 471.661 216.927C471.479 217.099 471.259 217.185 471 217.185ZM476.392 226.154C475.653 226.154 475.017 225.987 474.483 225.652C473.953 225.314 473.545 224.848 473.26 224.255C472.975 223.662 472.833 222.982 472.833 222.217C472.833 221.441 472.978 220.757 473.27 220.163C473.562 219.567 473.973 219.101 474.503 218.766C475.033 218.432 475.658 218.264 476.377 218.264C476.957 218.264 477.474 218.372 477.929 218.587C478.383 218.799 478.749 219.098 479.027 219.482C479.309 219.867 479.476 220.316 479.529 220.83H478.083C478.003 220.472 477.821 220.163 477.536 219.905C477.254 219.646 476.876 219.517 476.402 219.517C475.988 219.517 475.625 219.626 475.313 219.845C475.005 220.061 474.765 220.369 474.593 220.77C474.42 221.168 474.334 221.638 474.334 222.182C474.334 222.739 474.419 223.219 474.588 223.624C474.757 224.028 474.995 224.341 475.304 224.563C475.615 224.785 475.981 224.896 476.402 224.896C476.684 224.896 476.939 224.845 477.168 224.742C477.4 224.636 477.594 224.485 477.75 224.29C477.909 224.094 478.02 223.859 478.083 223.584H479.529C479.476 224.078 479.316 224.518 479.047 224.906C478.779 225.294 478.419 225.599 477.968 225.821C477.521 226.043 476.996 226.154 476.392 226.154ZM482.781 226.169C482.297 226.169 481.86 226.08 481.469 225.901C481.078 225.718 480.768 225.455 480.539 225.11C480.314 224.765 480.201 224.343 480.201 223.842C480.201 223.411 480.284 223.057 480.45 222.778C480.615 222.5 480.839 222.28 481.121 222.117C481.403 221.955 481.717 221.832 482.065 221.749C482.413 221.666 482.768 221.603 483.129 221.56C483.587 221.507 483.958 221.464 484.243 221.431C484.528 221.395 484.735 221.337 484.864 221.257C484.994 221.178 485.058 221.048 485.058 220.869V220.835C485.058 220.4 484.936 220.064 484.69 219.825C484.448 219.587 484.087 219.467 483.607 219.467C483.106 219.467 482.712 219.578 482.423 219.8C482.138 220.019 481.941 220.263 481.832 220.531L480.435 220.213C480.6 219.749 480.842 219.375 481.161 219.089C481.482 218.801 481.852 218.592 482.269 218.463C482.687 218.33 483.126 218.264 483.587 218.264C483.892 218.264 484.215 218.301 484.556 218.374C484.901 218.443 485.222 218.572 485.521 218.761C485.822 218.95 486.069 219.22 486.261 219.572C486.454 219.92 486.55 220.372 486.55 220.929V226H485.098V224.956H485.038C484.942 225.148 484.798 225.337 484.606 225.523C484.414 225.708 484.167 225.862 483.865 225.985C483.564 226.108 483.202 226.169 482.781 226.169ZM483.105 224.976C483.515 224.976 483.867 224.895 484.158 224.732C484.453 224.57 484.677 224.358 484.83 224.096C484.985 223.831 485.063 223.547 485.063 223.246V222.261C485.01 222.314 484.908 222.364 484.755 222.411C484.606 222.454 484.435 222.492 484.243 222.525C484.051 222.555 483.864 222.583 483.681 222.609C483.499 222.633 483.346 222.652 483.224 222.669C482.935 222.705 482.672 222.767 482.433 222.853C482.198 222.939 482.009 223.063 481.867 223.226C481.727 223.385 481.658 223.597 481.658 223.862C481.658 224.23 481.794 224.509 482.065 224.697C482.337 224.883 482.684 224.976 483.105 224.976ZM491.534 218.364V219.557H487.363V218.364H491.534ZM488.482 216.534H489.968V223.758C489.968 224.046 490.011 224.263 490.098 224.409C490.184 224.552 490.295 224.649 490.431 224.702C490.57 224.752 490.721 224.777 490.883 224.777C491.002 224.777 491.107 224.769 491.196 224.752C491.286 224.736 491.355 224.722 491.405 224.712L491.674 225.94C491.587 225.973 491.465 226.007 491.306 226.04C491.147 226.076 490.948 226.096 490.709 226.099C490.318 226.106 489.953 226.036 489.615 225.891C489.277 225.745 489.004 225.519 488.795 225.214C488.586 224.91 488.482 224.527 488.482 224.066V216.534ZM492.619 226V218.364H494.105V226H492.619ZM493.369 217.185C493.111 217.185 492.889 217.099 492.703 216.927C492.521 216.751 492.43 216.542 492.43 216.3C492.43 216.055 492.521 215.846 492.703 215.674C492.889 215.498 493.111 215.411 493.369 215.411C493.628 215.411 493.848 215.498 494.031 215.674C494.216 215.846 494.309 216.055 494.309 216.3C494.309 216.542 494.216 216.751 494.031 216.927C493.848 217.099 493.628 217.185 493.369 217.185ZM498.762 226.154C498.046 226.154 497.421 225.99 496.887 225.662C496.354 225.334 495.939 224.875 495.644 224.285C495.35 223.695 495.202 223.005 495.202 222.217C495.202 221.424 495.35 220.732 495.644 220.138C495.939 219.545 496.354 219.085 496.887 218.756C497.421 218.428 498.046 218.264 498.762 218.264C499.478 218.264 500.102 218.428 500.636 218.756C501.17 219.085 501.584 219.545 501.879 220.138C502.174 220.732 502.321 221.424 502.321 222.217C502.321 223.005 502.174 223.695 501.879 224.285C501.584 224.875 501.17 225.334 500.636 225.662C500.102 225.99 499.478 226.154 498.762 226.154ZM498.767 224.906C499.231 224.906 499.615 224.784 499.92 224.538C500.225 224.293 500.45 223.967 500.596 223.559C500.745 223.151 500.82 222.702 500.82 222.212C500.82 221.724 500.745 221.277 500.596 220.869C500.45 220.458 500.225 220.129 499.92 219.88C499.615 219.631 499.231 219.507 498.767 219.507C498.299 219.507 497.912 219.631 497.603 219.88C497.298 220.129 497.071 220.458 496.922 220.869C496.776 221.277 496.703 221.724 496.703 222.212C496.703 222.702 496.776 223.151 496.922 223.559C497.071 223.967 497.298 224.293 497.603 224.538C497.912 224.784 498.299 224.906 498.767 224.906ZM504.907 221.466V226H503.421V218.364H504.847V219.607H504.942C505.118 219.202 505.393 218.877 505.767 218.632C506.145 218.387 506.621 218.264 507.194 218.264C507.714 218.264 508.17 218.374 508.561 218.592C508.952 218.808 509.256 219.129 509.471 219.557C509.686 219.984 509.794 220.513 509.794 221.143V226H508.308V221.322C508.308 220.768 508.164 220.336 507.875 220.024C507.587 219.709 507.191 219.552 506.687 219.552C506.342 219.552 506.036 219.626 505.767 219.776C505.502 219.925 505.292 220.143 505.136 220.432C504.983 220.717 504.907 221.062 504.907 221.466ZM516.95 220.228L515.603 220.467C515.546 220.294 515.457 220.13 515.334 219.974C515.215 219.819 515.053 219.691 514.847 219.592C514.642 219.492 514.385 219.442 514.077 219.442C513.656 219.442 513.304 219.537 513.023 219.726C512.741 219.911 512.6 220.152 512.6 220.447C512.6 220.702 512.694 220.907 512.883 221.063C513.072 221.219 513.377 221.347 513.798 221.446L515.011 221.724C515.714 221.887 516.238 222.137 516.582 222.475C516.927 222.813 517.099 223.252 517.099 223.793C517.099 224.25 516.967 224.658 516.702 225.016C516.44 225.37 516.073 225.649 515.603 225.851C515.135 226.053 514.594 226.154 513.977 226.154C513.122 226.154 512.424 225.972 511.884 225.607C511.344 225.239 511.012 224.717 510.89 224.041L512.327 223.822C512.416 224.197 512.6 224.48 512.878 224.673C513.157 224.862 513.52 224.956 513.967 224.956C514.454 224.956 514.844 224.855 515.135 224.653C515.427 224.447 515.573 224.197 515.573 223.902C515.573 223.663 515.483 223.463 515.305 223.3C515.129 223.138 514.859 223.015 514.494 222.933L513.202 222.649C512.489 222.487 511.962 222.228 511.621 221.874C511.282 221.519 511.113 221.07 511.113 220.526C511.113 220.076 511.239 219.681 511.491 219.343C511.743 219.005 512.091 218.741 512.535 218.553C512.979 218.36 513.488 218.264 514.062 218.264C514.887 218.264 515.537 218.443 516.01 218.801C516.484 219.156 516.798 219.631 516.95 220.228Z" fill="#454545"/>
</g>
<foreignObject x="355.734" y="414" width="186" height="96"><div xmlns="http://www.w3.org/1999/xhtml" style="backdrop-filter:blur(17px);clip-path:url(#bgblur_12_c3_169638_clip_path);height:100%;width:100%"></div></foreignObject><g id="engine-label-container_2" filter="url(#filter13_diii_c3_169638)" data-figma-bg-blur-radius="34">
<path d="M389.734 462C389.734 454.268 396.002 448 403.734 448H493.734C501.466 448 507.734 454.268 507.734 462C507.734 469.732 501.466 476 493.734 476H403.734C396.002 476 389.734 469.732 389.734 462Z" fill="white" shape-rendering="crispEdges"/>
<path d="M389.734 462C389.734 454.268 396.002 448 403.734 448H493.734C501.466 448 507.734 454.268 507.734 462C507.734 469.732 501.466 476 493.734 476H403.734C396.002 476 389.734 469.732 389.734 462Z" fill="url(#paint14_linear_c3_169638)" fill-opacity="0.3" shape-rendering="crispEdges"/>
<path d="M403.734 448.5H493.734C501.19 448.5 507.234 454.544 507.234 462C507.234 469.456 501.19 475.5 493.734 475.5H403.734C396.279 475.5 390.234 469.456 390.234 462C390.234 454.544 396.279 448.5 403.734 448.5Z" stroke="url(#paint15_linear_c3_169638)" shape-rendering="crispEdges"/>
<path id="engine-label-text_2" d="M403.944 467H402.313L405.977 456.818H407.752L411.416 467H409.785L406.907 458.668H406.827L403.944 467ZM404.217 463.013H409.507V464.305H404.217V463.013ZM417.044 463.833V459.364H418.536V467H417.074V465.678H416.995C416.819 466.085 416.537 466.425 416.149 466.697C415.765 466.965 415.286 467.099 414.713 467.099C414.222 467.099 413.788 466.992 413.41 466.776C413.036 466.558 412.741 466.234 412.525 465.807C412.313 465.379 412.207 464.851 412.207 464.221V459.364H413.694V464.042C413.694 464.562 413.838 464.977 414.126 465.285C414.414 465.593 414.789 465.747 415.25 465.747C415.528 465.747 415.805 465.678 416.08 465.538C416.358 465.399 416.589 465.189 416.771 464.907C416.957 464.625 417.048 464.267 417.044 463.833ZM423.538 459.364V460.557H419.367V459.364H423.538ZM420.485 457.534H421.972V464.758C421.972 465.046 422.015 465.263 422.101 465.409C422.187 465.552 422.298 465.649 422.434 465.702C422.573 465.752 422.724 465.777 422.887 465.777C423.006 465.777 423.11 465.769 423.2 465.752C423.289 465.736 423.359 465.722 423.409 465.712L423.677 466.94C423.591 466.973 423.468 467.007 423.309 467.04C423.15 467.076 422.951 467.096 422.713 467.099C422.321 467.106 421.957 467.036 421.619 466.891C421.281 466.745 421.007 466.519 420.798 466.214C420.59 465.91 420.485 465.527 420.485 465.066V457.534ZM427.757 467.154C427.041 467.154 426.416 466.99 425.882 466.662C425.349 466.334 424.935 465.875 424.64 465.285C424.345 464.695 424.197 464.005 424.197 463.217C424.197 462.424 424.345 461.732 424.64 461.138C424.935 460.545 425.349 460.085 425.882 459.756C426.416 459.428 427.041 459.264 427.757 459.264C428.473 459.264 429.097 459.428 429.631 459.756C430.165 460.085 430.579 460.545 430.874 461.138C431.169 461.732 431.316 462.424 431.316 463.217C431.316 464.005 431.169 464.695 430.874 465.285C430.579 465.875 430.165 466.334 429.631 466.662C429.097 466.99 428.473 467.154 427.757 467.154ZM427.762 465.906C428.226 465.906 428.61 465.784 428.915 465.538C429.22 465.293 429.445 464.967 429.591 464.559C429.74 464.151 429.815 463.702 429.815 463.212C429.815 462.724 429.74 462.277 429.591 461.869C429.445 461.458 429.22 461.129 428.915 460.88C428.61 460.631 428.226 460.507 427.762 460.507C427.294 460.507 426.907 460.631 426.598 460.88C426.293 461.129 426.066 461.458 425.917 461.869C425.771 462.277 425.699 462.724 425.699 463.212C425.699 463.702 425.771 464.151 425.917 464.559C426.066 464.967 426.293 465.293 426.598 465.538C426.907 465.784 427.294 465.906 427.762 465.906ZM440.06 462.053V463.341H435.546V462.053H440.06ZM447.918 467.154C447.165 467.154 446.517 466.993 445.974 466.672C445.433 466.347 445.016 465.891 444.721 465.305C444.429 464.715 444.283 464.024 444.283 463.232C444.283 462.449 444.429 461.76 444.721 461.163C445.016 460.567 445.427 460.101 445.954 459.766C446.484 459.432 447.104 459.264 447.813 459.264C448.244 459.264 448.662 459.335 449.066 459.478C449.47 459.621 449.833 459.844 450.155 460.149C450.476 460.454 450.73 460.85 450.915 461.337C451.101 461.821 451.194 462.41 451.194 463.102V463.629H445.123V462.516H449.737C449.737 462.125 449.658 461.778 449.498 461.477C449.339 461.172 449.116 460.931 448.827 460.756C448.542 460.58 448.208 460.492 447.823 460.492C447.405 460.492 447.041 460.595 446.729 460.8C446.421 461.003 446.182 461.268 446.013 461.596C445.848 461.921 445.765 462.274 445.765 462.655V463.525C445.765 464.035 445.854 464.469 446.033 464.827C446.216 465.185 446.469 465.459 446.794 465.648C447.119 465.833 447.498 465.926 447.932 465.926C448.214 465.926 448.471 465.886 448.703 465.807C448.935 465.724 449.136 465.601 449.305 465.439C449.474 465.277 449.603 465.076 449.692 464.837L451.099 465.091C450.987 465.505 450.784 465.868 450.493 466.18C450.204 466.488 449.842 466.728 449.404 466.901C448.97 467.07 448.474 467.154 447.918 467.154ZM452.283 467V459.364H453.71V460.607H453.804C453.964 460.186 454.224 459.857 454.585 459.622C454.946 459.384 455.379 459.264 455.883 459.264C456.393 459.264 456.821 459.384 457.165 459.622C457.513 459.861 457.77 460.189 457.936 460.607H458.015C458.198 460.199 458.488 459.874 458.885 459.632C459.283 459.387 459.757 459.264 460.307 459.264C461 459.264 461.565 459.481 462.003 459.915C462.443 460.35 462.664 461.004 462.664 461.879V467H461.177V462.018C461.177 461.501 461.036 461.127 460.755 460.895C460.473 460.663 460.137 460.547 459.745 460.547C459.262 460.547 458.885 460.696 458.617 460.994C458.348 461.289 458.214 461.669 458.214 462.133V467H456.733V461.924C456.733 461.51 456.603 461.177 456.345 460.925C456.086 460.673 455.75 460.547 455.336 460.547C455.054 460.547 454.794 460.621 454.555 460.771C454.32 460.916 454.129 461.12 453.983 461.382C453.841 461.644 453.77 461.947 453.77 462.292V467H452.283ZM466.318 467.169C465.835 467.169 465.397 467.08 465.006 466.901C464.615 466.718 464.305 466.455 464.076 466.11C463.851 465.765 463.738 465.343 463.738 464.842C463.738 464.411 463.821 464.057 463.987 463.778C464.153 463.5 464.376 463.28 464.658 463.117C464.94 462.955 465.255 462.832 465.603 462.749C465.951 462.666 466.305 462.603 466.666 462.56C467.124 462.507 467.495 462.464 467.78 462.431C468.065 462.395 468.272 462.337 468.402 462.257C468.531 462.178 468.595 462.048 468.595 461.869V461.835C468.595 461.4 468.473 461.064 468.228 460.825C467.986 460.587 467.624 460.467 467.144 460.467C466.643 460.467 466.249 460.578 465.961 460.8C465.675 461.019 465.478 461.263 465.369 461.531L463.972 461.213C464.138 460.749 464.38 460.375 464.698 460.089C465.019 459.801 465.389 459.592 465.806 459.463C466.224 459.33 466.663 459.264 467.124 459.264C467.429 459.264 467.752 459.301 468.093 459.374C468.438 459.443 468.76 459.572 469.058 459.761C469.359 459.95 469.606 460.22 469.799 460.572C469.991 460.92 470.087 461.372 470.087 461.929V467H468.635V465.956H468.576C468.479 466.148 468.335 466.337 468.143 466.523C467.951 466.708 467.704 466.862 467.402 466.985C467.101 467.108 466.739 467.169 466.318 467.169ZM466.642 465.976C467.053 465.976 467.404 465.895 467.696 465.732C467.991 465.57 468.214 465.358 468.367 465.096C468.523 464.831 468.6 464.547 468.6 464.246V463.261C468.547 463.314 468.445 463.364 468.292 463.411C468.143 463.454 467.972 463.492 467.78 463.525C467.588 463.555 467.401 463.583 467.218 463.609C467.036 463.633 466.884 463.652 466.761 463.669C466.473 463.705 466.209 463.767 465.97 463.853C465.735 463.939 465.546 464.063 465.404 464.226C465.264 464.385 465.195 464.597 465.195 464.862C465.195 465.23 465.331 465.509 465.603 465.697C465.874 465.883 466.221 465.976 466.642 465.976ZM471.507 467V459.364H472.993V467H471.507ZM472.258 458.185C471.999 458.185 471.777 458.099 471.591 457.927C471.409 457.751 471.318 457.542 471.318 457.3C471.318 457.055 471.409 456.846 471.591 456.674C471.777 456.498 471.999 456.411 472.258 456.411C472.516 456.411 472.737 456.498 472.919 456.674C473.104 456.846 473.197 457.055 473.197 457.3C473.197 457.542 473.104 457.751 472.919 457.927C472.737 458.099 472.516 458.185 472.258 458.185ZM475.92 456.818V467H474.433V456.818H475.92ZM477.36 467V459.364H478.846V467H477.36ZM478.11 458.185C477.852 458.185 477.63 458.099 477.444 457.927C477.262 457.751 477.171 457.542 477.171 457.3C477.171 457.055 477.262 456.846 477.444 456.674C477.63 456.498 477.852 456.411 478.11 456.411C478.369 456.411 478.589 456.498 478.771 456.674C478.957 456.846 479.05 457.055 479.05 457.3C479.05 457.542 478.957 457.751 478.771 457.927C478.589 458.099 478.369 458.185 478.11 458.185ZM481.772 462.466V467H480.286V459.364H481.713V460.607H481.807C481.983 460.202 482.258 459.877 482.632 459.632C483.01 459.387 483.486 459.264 484.059 459.264C484.58 459.264 485.035 459.374 485.426 459.592C485.818 459.808 486.121 460.129 486.336 460.557C486.552 460.984 486.659 461.513 486.659 462.143V467H485.173V462.322C485.173 461.768 485.029 461.336 484.74 461.024C484.452 460.709 484.056 460.552 483.552 460.552C483.207 460.552 482.901 460.626 482.632 460.776C482.367 460.925 482.157 461.143 482.001 461.432C481.849 461.717 481.772 462.062 481.772 462.466ZM491.295 470.023C490.688 470.023 490.166 469.943 489.729 469.784C489.295 469.625 488.94 469.415 488.665 469.153C488.39 468.891 488.184 468.604 488.048 468.293L489.326 467.766C489.415 467.911 489.535 468.066 489.684 468.228C489.836 468.394 490.042 468.535 490.3 468.651C490.562 468.767 490.899 468.825 491.31 468.825C491.873 468.825 492.339 468.687 492.707 468.412C493.075 468.14 493.259 467.706 493.259 467.109V465.608H493.164C493.075 465.77 492.945 465.951 492.776 466.15C492.611 466.349 492.382 466.521 492.09 466.667C491.799 466.813 491.419 466.886 490.952 466.886C490.348 466.886 489.805 466.745 489.321 466.463C488.84 466.178 488.459 465.759 488.178 465.205C487.899 464.648 487.76 463.964 487.76 463.152C487.76 462.34 487.897 461.644 488.173 461.064C488.451 460.484 488.832 460.04 489.316 459.732C489.8 459.42 490.348 459.264 490.962 459.264C491.436 459.264 491.818 459.344 492.11 459.503C492.402 459.659 492.629 459.841 492.791 460.05C492.957 460.259 493.085 460.442 493.174 460.602H493.283V459.364H494.74V467.169C494.74 467.825 494.588 468.364 494.283 468.785C493.978 469.206 493.565 469.517 493.045 469.719C492.528 469.922 491.944 470.023 491.295 470.023ZM491.28 465.653C491.707 465.653 492.069 465.553 492.364 465.354C492.662 465.152 492.887 464.864 493.04 464.489C493.196 464.112 493.273 463.659 493.273 463.132C493.273 462.618 493.197 462.166 493.045 461.775C492.892 461.384 492.669 461.079 492.374 460.86C492.079 460.638 491.714 460.527 491.28 460.527C490.832 460.527 490.46 460.643 490.161 460.875C489.863 461.104 489.638 461.415 489.485 461.81C489.336 462.204 489.261 462.645 489.261 463.132C489.261 463.633 489.338 464.072 489.49 464.45C489.643 464.827 489.868 465.122 490.166 465.335C490.468 465.547 490.839 465.653 491.28 465.653Z" fill="#454545"/>
</g>
</g>
</g>
<defs>
<filter id="filter0_di_c3_169638" x="329" y="338" width="37" height="65" filterUnits="userSpaceOnUse" color-interpolation-filters="sRGB">
<feFlood flood-opacity="0" result="BackgroundImageFix"/>
<feColorMatrix in="SourceAlpha" type="matrix" values="0 0 0 0 0 0 0 0 0 0 0 0 0 0 0 0 0 0 127 0" result="hardAlpha"/>
<feMorphology radius="16" operator="erode" in="SourceAlpha" result="effect1_dropShadow_c3_169638"/>
<feOffset dy="32"/>
<feGaussianBlur stdDeviation="12"/>
<feComposite in2="hardAlpha" operator="out"/>
<feColorMatrix type="matrix" values="0 0 0 0 0 0 0 0 0 0 0 0 0 0 0 0 0 0 0.4 0"/>
<feBlend mode="multiply" in2="BackgroundImageFix" result="effect1_dropShadow_c3_169638"/>
<feBlend mode="normal" in="SourceGraphic" in2="effect1_dropShadow_c3_169638" result="shape"/>
<feColorMatrix in="SourceAlpha" type="matrix" values="0 0 0 0 0 0 0 0 0 0 0 0 0 0 0 0 0 0 127 0" result="hardAlpha"/>
<feOffset/>
<feGaussianBlur stdDeviation="4"/>
<feComposite in2="hardAlpha" operator="arithmetic" k2="-1" k3="1"/>
<feColorMatrix type="matrix" values="0 0 0 0 0.972549 0 0 0 0 0.972549 0 0 0 0 0.972549 0 0 0 0.25 0"/>
<feBlend mode="normal" in2="shape" result="effect2_innerShadow_c3_169638"/>
</filter>
<clipPath id="bgblur_0_c3_169638_clip_path" transform="translate(-329 -338)"><circle cx="347.5" cy="356.5" r="6.5"/>
</clipPath><filter id="filter1_di_c3_169638" x="330" y="241" width="36" height="64" filterUnits="userSpaceOnUse" color-interpolation-filters="sRGB">
<feFlood flood-opacity="0" result="BackgroundImageFix"/>
<feColorMatrix in="SourceAlpha" type="matrix" values="0 0 0 0 0 0 0 0 0 0 0 0 0 0 0 0 0 0 127 0" result="hardAlpha"/>
<feMorphology radius="16" operator="erode" in="SourceAlpha" result="effect1_dropShadow_c3_169638"/>
<feOffset dy="32"/>
<feGaussianBlur stdDeviation="12"/>
<feComposite in2="hardAlpha" operator="out"/>
<feColorMatrix type="matrix" values="0 0 0 0 0 0 0 0 0 0 0 0 0 0 0 0 0 0 0.4 0"/>
<feBlend mode="multiply" in2="BackgroundImageFix" result="effect1_dropShadow_c3_169638"/>
<feBlend mode="normal" in="SourceGraphic" in2="effect1_dropShadow_c3_169638" result="shape"/>
<feColorMatrix in="SourceAlpha" type="matrix" values="0 0 0 0 0 0 0 0 0 0 0 0 0 0 0 0 0 0 127 0" result="hardAlpha"/>
<feOffset/>
<feGaussianBlur stdDeviation="4"/>
<feComposite in2="hardAlpha" operator="arithmetic" k2="-1" k3="1"/>
<feColorMatrix type="matrix" values="0 0 0 0 0.972549 0 0 0 0 0.972549 0 0 0 0 0.972549 0 0 0 0.25 0"/>
<feBlend mode="normal" in2="shape" result="effect2_innerShadow_c3_169638"/>
</filter>
<clipPath id="bgblur_1_c3_169638_clip_path" transform="translate(-330 -241)"><circle cx="348" cy="259" r="6"/>
</clipPath><filter id="filter2_di_c3_169638" x="513.734" y="339" width="36" height="64" filterUnits="userSpaceOnUse" color-interpolation-filters="sRGB">
<feFlood flood-opacity="0" result="BackgroundImageFix"/>
<feColorMatrix in="SourceAlpha" type="matrix" values="0 0 0 0 0 0 0 0 0 0 0 0 0 0 0 0 0 0 127 0" result="hardAlpha"/>
<feMorphology radius="16" operator="erode" in="SourceAlpha" result="effect1_dropShadow_c3_169638"/>
<feOffset dy="32"/>
<feGaussianBlur stdDeviation="12"/>
<feComposite in2="hardAlpha" operator="out"/>
<feColorMatrix type="matrix" values="0 0 0 0 0 0 0 0 0 0 0 0 0 0 0 0 0 0 0.4 0"/>
<feBlend mode="multiply" in2="BackgroundImageFix" result="effect1_dropShadow_c3_169638"/>
<feBlend mode="normal" in="SourceGraphic" in2="effect1_dropShadow_c3_169638" result="shape"/>
<feColorMatrix in="SourceAlpha" type="matrix" values="0 0 0 0 0 0 0 0 0 0 0 0 0 0 0 0 0 0 127 0" result="hardAlpha"/>
<feOffset/>
<feGaussianBlur stdDeviation="4"/>
<feComposite in2="hardAlpha" operator="arithmetic" k2="-1" k3="1"/>
<feColorMatrix type="matrix" values="0 0 0 0 0.972549 0 0 0 0 0.972549 0 0 0 0 0.972549 0 0 0 0.25 0"/>
<feBlend mode="normal" in2="shape" result="effect2_innerShadow_c3_169638"/>
</filter>
<clipPath id="bgblur_2_c3_169638_clip_path" transform="translate(-513.734 -339)"><circle cx="531.734" cy="357" r="6"/>
</clipPath><filter id="filter3_di_c3_169638" x="285.734" y="338" width="36" height="64" filterUnits="userSpaceOnUse" color-interpolation-filters="sRGB">
<feFlood flood-opacity="0" result="BackgroundImageFix"/>
<feColorMatrix in="SourceAlpha" type="matrix" values="0 0 0 0 0 0 0 0 0 0 0 0 0 0 0 0 0 0 127 0" result="hardAlpha"/>
<feMorphology radius="16" operator="erode" in="SourceAlpha" result="effect1_dropShadow_c3_169638"/>
<feOffset dy="32"/>
<feGaussianBlur stdDeviation="12"/>
<feComposite in2="hardAlpha" operator="out"/>
<feColorMatrix type="matrix" values="0 0 0 0 0 0 0 0 0 0 0 0 0 0 0 0 0 0 0.4 0"/>
<feBlend mode="multiply" in2="BackgroundImageFix" result="effect1_dropShadow_c3_169638"/>
<feBlend mode="normal" in="SourceGraphic" in2="effect1_dropShadow_c3_169638" result="shape"/>
<feColorMatrix in="SourceAlpha" type="matrix" values="0 0 0 0 0 0 0 0 0 0 0 0 0 0 0 0 0 0 127 0" result="hardAlpha"/>
<feOffset/>
<feGaussianBlur stdDeviation="4"/>
<feComposite in2="hardAlpha" operator="arithmetic" k2="-1" k3="1"/>
<feColorMatrix type="matrix" values="0 0 0 0 0.972549 0 0 0 0 0.972549 0 0 0 0 0.972549 0 0 0 0.25 0"/>
<feBlend mode="normal" in2="shape" result="effect2_innerShadow_c3_169638"/>
</filter>
<clipPath id="bgblur_3_c3_169638_clip_path" transform="translate(-285.734 -338)"><circle cx="303.734" cy="356" r="6"/>
</clipPath><filter id="filter4_di_c3_169638" x="308.734" y="408" width="36" height="64" filterUnits="userSpaceOnUse" color-interpolation-filters="sRGB">
<feFlood flood-opacity="0" result="BackgroundImageFix"/>
<feColorMatrix in="SourceAlpha" type="matrix" values="0 0 0 0 0 0 0 0 0 0 0 0 0 0 0 0 0 0 127 0" result="hardAlpha"/>
<feMorphology radius="16" operator="erode" in="SourceAlpha" result="effect1_dropShadow_c3_169638"/>
<feOffset dy="32"/>
<feGaussianBlur stdDeviation="12"/>
<feComposite in2="hardAlpha" operator="out"/>
<feColorMatrix type="matrix" values="0 0 0 0 0 0 0 0 0 0 0 0 0 0 0 0 0 0 0.4 0"/>
<feBlend mode="multiply" in2="BackgroundImageFix" result="effect1_dropShadow_c3_169638"/>
<feBlend mode="normal" in="SourceGraphic" in2="effect1_dropShadow_c3_169638" result="shape"/>
<feColorMatrix in="SourceAlpha" type="matrix" values="0 0 0 0 0 0 0 0 0 0 0 0 0 0 0 0 0 0 127 0" result="hardAlpha"/>
<feOffset/>
<feGaussianBlur stdDeviation="4"/>
<feComposite in2="hardAlpha" operator="arithmetic" k2="-1" k3="1"/>
<feColorMatrix type="matrix" values="0 0 0 0 0.972549 0 0 0 0 0.972549 0 0 0 0 0.972549 0 0 0 0.25 0"/>
<feBlend mode="normal" in2="shape" result="effect2_innerShadow_c3_169638"/>
</filter>
<clipPath id="bgblur_4_c3_169638_clip_path" transform="translate(-308.734 -408)"><circle cx="326.734" cy="426" r="6"/>
</clipPath><filter id="filter5_di_c3_169638" x="365.734" y="307" width="36" height="64" filterUnits="userSpaceOnUse" color-interpolation-filters="sRGB">
<feFlood flood-opacity="0" result="BackgroundImageFix"/>
<feColorMatrix in="SourceAlpha" type="matrix" values="0 0 0 0 0 0 0 0 0 0 0 0 0 0 0 0 0 0 127 0" result="hardAlpha"/>
<feMorphology radius="16" operator="erode" in="SourceAlpha" result="effect1_dropShadow_c3_169638"/>
<feOffset dy="32"/>
<feGaussianBlur stdDeviation="12"/>
<feComposite in2="hardAlpha" operator="out"/>
<feColorMatrix type="matrix" values="0 0 0 0 0 0 0 0 0 0 0 0 0 0 0 0 0 0 0.4 0"/>
<feBlend mode="multiply" in2="BackgroundImageFix" result="effect1_dropShadow_c3_169638"/>
<feBlend mode="normal" in="SourceGraphic" in2="effect1_dropShadow_c3_169638" result="shape"/>
<feColorMatrix in="SourceAlpha" type="matrix" values="0 0 0 0 0 0 0 0 0 0 0 0 0 0 0 0 0 0 127 0" result="hardAlpha"/>
<feOffset/>
<feGaussianBlur stdDeviation="4"/>
<feComposite in2="hardAlpha" operator="arithmetic" k2="-1" k3="1"/>
<feColorMatrix type="matrix" values="0 0 0 0 0.972549 0 0 0 0 0.972549 0 0 0 0 0.972549 0 0 0 0.25 0"/>
<feBlend mode="normal" in2="shape" result="effect2_innerShadow_c3_169638"/>
</filter>
<clipPath id="bgblur_5_c3_169638_clip_path" transform="translate(-365.734 -307)"><circle cx="383.734" cy="325" r="6"/>
</clipPath><filter id="filter6_di_c3_169638" x="325.734" y="241" width="36" height="64" filterUnits="userSpaceOnUse" color-interpolation-filters="sRGB">
<feFlood flood-opacity="0" result="BackgroundImageFix"/>
<feColorMatrix in="SourceAlpha" type="matrix" values="0 0 0 0 0 0 0 0 0 0 0 0 0 0 0 0 0 0 127 0" result="hardAlpha"/>
<feMorphology radius="16" operator="erode" in="SourceAlpha" result="effect1_dropShadow_c3_169638"/>
<feOffset dy="32"/>
<feGaussianBlur stdDeviation="12"/>
<feComposite in2="hardAlpha" operator="out"/>
<feColorMatrix type="matrix" values="0 0 0 0 0 0 0 0 0 0 0 0 0 0 0 0 0 0 0.4 0"/>
<feBlend mode="multiply" in2="BackgroundImageFix" result="effect1_dropShadow_c3_169638"/>
<feBlend mode="normal" in="SourceGraphic" in2="effect1_dropShadow_c3_169638" result="shape"/>
<feColorMatrix in="SourceAlpha" type="matrix" values="0 0 0 0 0 0 0 0 0 0 0 0 0 0 0 0 0 0 127 0" result="hardAlpha"/>
<feOffset/>
<feGaussianBlur stdDeviation="4"/>
<feComposite in2="hardAlpha" operator="arithmetic" k2="-1" k3="1"/>
<feColorMatrix type="matrix" values="0 0 0 0 0.972549 0 0 0 0 0.972549 0 0 0 0 0.972549 0 0 0 0.25 0"/>
<feBlend mode="normal" in2="shape" result="effect2_innerShadow_c3_169638"/>
</filter>
<clipPath id="bgblur_6_c3_169638_clip_path" transform="translate(-325.734 -241)"><circle cx="343.734" cy="259" r="6"/>
</clipPath><filter id="filter7_di_c3_169638" x="513.734" y="310" width="36" height="64" filterUnits="userSpaceOnUse" color-interpolation-filters="sRGB">
<feFlood flood-opacity="0" result="BackgroundImageFix"/>
<feColorMatrix in="SourceAlpha" type="matrix" values="0 0 0 0 0 0 0 0 0 0 0 0 0 0 0 0 0 0 127 0" result="hardAlpha"/>
<feMorphology radius="16" operator="erode" in="SourceAlpha" result="effect1_dropShadow_c3_169638"/>
<feOffset dy="32"/>
<feGaussianBlur stdDeviation="12"/>
<feComposite in2="hardAlpha" operator="out"/>
<feColorMatrix type="matrix" values="0 0 0 0 0 0 0 0 0 0 0 0 0 0 0 0 0 0 0.4 0"/>
<feBlend mode="multiply" in2="BackgroundImageFix" result="effect1_dropShadow_c3_169638"/>
<feBlend mode="normal" in="SourceGraphic" in2="effect1_dropShadow_c3_169638" result="shape"/>
<feColorMatrix in="SourceAlpha" type="matrix" values="0 0 0 0 0 0 0 0 0 0 0 0 0 0 0 0 0 0 127 0" result="hardAlpha"/>
<feOffset/>
<feGaussianBlur stdDeviation="4"/>
<feComposite in2="hardAlpha" operator="arithmetic" k2="-1" k3="1"/>
<feColorMatrix type="matrix" values="0 0 0 0 0.972549 0 0 0 0 0.972549 0 0 0 0 0.972549 0 0 0 0.25 0"/>
<feBlend mode="normal" in2="shape" result="effect2_innerShadow_c3_169638"/>
</filter>
<clipPath id="bgblur_7_c3_169638_clip_path" transform="translate(-513.734 -310)"><circle cx="531.734" cy="328" r="6"/>
</clipPath><filter id="filter8_di_c3_169638" x="426.734" y="237" width="44" height="72" filterUnits="userSpaceOnUse" color-interpolation-filters="sRGB">
<feFlood flood-opacity="0" result="BackgroundImageFix"/>
<feColorMatrix in="SourceAlpha" type="matrix" values="0 0 0 0 0 0 0 0 0 0 0 0 0 0 0 0 0 0 127 0" result="hardAlpha"/>
<feMorphology radius="16" operator="erode" in="SourceAlpha" result="effect1_dropShadow_c3_169638"/>
<feOffset dy="32"/>
<feGaussianBlur stdDeviation="12"/>
<feComposite in2="hardAlpha" operator="out"/>
<feColorMatrix type="matrix" values="0 0 0 0 0 0 0 0 0 0 0 0 0 0 0 0 0 0 0.4 0"/>
<feBlend mode="multiply" in2="BackgroundImageFix" result="effect1_dropShadow_c3_169638"/>
<feBlend mode="normal" in="SourceGraphic" in2="effect1_dropShadow_c3_169638" result="shape"/>
<feColorMatrix in="SourceAlpha" type="matrix" values="0 0 0 0 0 0 0 0 0 0 0 0 0 0 0 0 0 0 127 0" result="hardAlpha"/>
<feOffset/>
<feGaussianBlur stdDeviation="4"/>
<feComposite in2="hardAlpha" operator="arithmetic" k2="-1" k3="1"/>
<feColorMatrix type="matrix" values="0 0 0 0 0.972549 0 0 0 0 0.972549 0 0 0 0 0.972549 0 0 0 0.25 0"/>
<feBlend mode="normal" in2="shape" result="effect2_innerShadow_c3_169638"/>
</filter>
<clipPath id="bgblur_8_c3_169638_clip_path" transform="translate(-426.734 -237)"><circle cx="448.734" cy="259" r="10"/>
</clipPath><filter id="filter9_di_c3_169638" x="426.734" y="402" width="44" height="72" filterUnits="userSpaceOnUse" color-interpolation-filters="sRGB">
<feFlood flood-opacity="0" result="BackgroundImageFix"/>
<feColorMatrix in="SourceAlpha" type="matrix" values="0 0 0 0 0 0 0 0 0 0 0 0 0 0 0 0 0 0 127 0" result="hardAlpha"/>
<feMorphology radius="16" operator="erode" in="SourceAlpha" result="effect1_dropShadow_c3_169638"/>
<feOffset dy="32"/>
<feGaussianBlur stdDeviation="12"/>
<feComposite in2="hardAlpha" operator="out"/>
<feColorMatrix type="matrix" values="0 0 0 0 0 0 0 0 0 0 0 0 0 0 0 0 0 0 0.4 0"/>
<feBlend mode="multiply" in2="BackgroundImageFix" result="effect1_dropShadow_c3_169638"/>
<feBlend mode="normal" in="SourceGraphic" in2="effect1_dropShadow_c3_169638" result="shape"/>
<feColorMatrix in="SourceAlpha" type="matrix" values="0 0 0 0 0 0 0 0 0 0 0 0 0 0 0 0 0 0 127 0" result="hardAlpha"/>
<feOffset/>
<feGaussianBlur stdDeviation="4"/>
<feComposite in2="hardAlpha" operator="arithmetic" k2="-1" k3="1"/>
<feColorMatrix type="matrix" values="0 0 0 0 0.972549 0 0 0 0 0.972549 0 0 0 0 0.972549 0 0 0 0.25 0"/>
<feBlend mode="normal" in2="shape" result="effect2_innerShadow_c3_169638"/>
</filter>
<clipPath id="bgblur_9_c3_169638_clip_path" transform="translate(-426.734 -402)"><circle cx="448.734" cy="424" r="10"/>
</clipPath><filter id="filter10_dd_c3_169638" x="390.462" y="282.462" width="117.077" height="153.138" filterUnits="userSpaceOnUse" color-interpolation-filters="sRGB">
<feFlood flood-opacity="0" result="BackgroundImageFix"/>
<feColorMatrix in="SourceAlpha" type="matrix" values="0 0 0 0 0 0 0 0 0 0 0 0 0 0 0 0 0 0 127 0" result="hardAlpha"/>
<feMorphology radius="23.04" operator="erode" in="SourceAlpha" result="effect1_dropShadow_c3_169638"/>
<feOffset dy="46.08"/>
<feGaussianBlur stdDeviation="17.28"/>
<feComposite in2="hardAlpha" operator="out"/>
<feColorMatrix type="matrix" values="0 0 0 0 0.270588 0 0 0 0 0.270588 0 0 0 0 0.270588 0 0 0 0.4 0"/>
<feBlend mode="multiply" in2="BackgroundImageFix" result="effect1_dropShadow_c3_169638"/>
<feColorMatrix in="SourceAlpha" type="matrix" values="0 0 0 0 0 0 0 0 0 0 0 0 0 0 0 0 0 0 127 0" result="hardAlpha"/>
<feOffset/>
<feGaussianBlur stdDeviation="10.7692"/>
<feComposite in2="hardAlpha" operator="out"/>
<feColorMatrix type="matrix" values="0 0 0 0 0.270588 0 0 0 0 0.270588 0 0 0 0 0.270588 0 0 0 0.3 0"/>
<feBlend mode="normal" in2="effect1_dropShadow_c3_169638" result="effect2_dropShadow_c3_169638"/>
<feBlend mode="normal" in="SourceGraphic" in2="effect2_dropShadow_c3_169638" result="shape"/>
</filter>
<filter id="filter11_iii_c3_169638" x="383" y="275" width="132" height="132" filterUnits="userSpaceOnUse" color-interpolation-filters="sRGB">
<feFlood flood-opacity="0" result="BackgroundImageFix"/>
<feBlend mode="normal" in="SourceGraphic" in2="BackgroundImageFix" result="shape"/>
<feColorMatrix in="SourceAlpha" type="matrix" values="0 0 0 0 0 0 0 0 0 0 0 0 0 0 0 0 0 0 127 0" result="hardAlpha"/>
<feOffset dy="4"/>
<feGaussianBlur stdDeviation="18.65"/>
<feComposite in2="hardAlpha" operator="arithmetic" k2="-1" k3="1"/>
<feColorMatrix type="matrix" values="0 0 0 0 0.270588 0 0 0 0 0.270588 0 0 0 0 0.270588 0 0 0 0.1 0"/>
<feBlend mode="normal" in2="shape" result="effect1_innerShadow_c3_169638"/>
<feColorMatrix in="SourceAlpha" type="matrix" values="0 0 0 0 0 0 0 0 0 0 0 0 0 0 0 0 0 0 127 0" result="hardAlpha"/>
<feOffset dy="10"/>
<feGaussianBlur stdDeviation="5"/>
<feComposite in2="hardAlpha" operator="arithmetic" k2="-1" k3="1"/>
<feColorMatrix type="matrix" values="0 0 0 0 0.270588 0 0 0 0 0.270588 0 0 0 0 0.270588 0 0 0 0.05 0"/>
<feBlend mode="normal" in2="effect1_innerShadow_c3_169638" result="effect2_innerShadow_c3_169638"/>
<feColorMatrix in="SourceAlpha" type="matrix" values="0 0 0 0 0 0 0 0 0 0 0 0 0 0 0 0 0 0 127 0" result="hardAlpha"/>
<feOffset dy="2"/>
<feGaussianBlur stdDeviation="1.5"/>
<feComposite in2="hardAlpha" operator="arithmetic" k2="-1" k3="1"/>
<feColorMatrix type="matrix" values="0 0 0 0 0.270588 0 0 0 0 0.270588 0 0 0 0 0.270588 0 0 0 0.2 0"/>
<feBlend mode="normal" in2="effect2_innerShadow_c3_169638" result="effect3_innerShadow_c3_169638"/>
</filter>
<clipPath id="bgblur_10_c3_169638_clip_path" transform="translate(-383 -275)"><path d="M417 341C417 323.327 431.327 309 449 309C466.673 309 481 323.327 481 341C481 358.673 466.673 373 449 373C431.327 373 417 358.673 417 341Z"/>
</clipPath><filter id="filter12_diii_c3_169638" x="333.734" y="173" width="230" height="96" filterUnits="userSpaceOnUse" color-interpolation-filters="sRGB">
<feFlood flood-opacity="0" result="BackgroundImageFix"/>
<feColorMatrix in="SourceAlpha" type="matrix" values="0 0 0 0 0 0 0 0 0 0 0 0 0 0 0 0 0 0 127 0" result="hardAlpha"/>
<feMorphology radius="23.04" operator="erode" in="SourceAlpha" result="effect1_dropShadow_c3_169638"/>
<feOffset dy="15.08"/>
<feGaussianBlur stdDeviation="17.28"/>
<feComposite in2="hardAlpha" operator="out"/>
<feColorMatrix type="matrix" values="0 0 0 0 0.270588 0 0 0 0 0.270588 0 0 0 0 0.270588 0 0 0 0.4 0"/>
<feBlend mode="multiply" in2="BackgroundImageFix" result="effect1_dropShadow_c3_169638"/>
<feBlend mode="normal" in="SourceGraphic" in2="effect1_dropShadow_c3_169638" result="shape"/>
<feColorMatrix in="SourceAlpha" type="matrix" values="0 0 0 0 0 0 0 0 0 0 0 0 0 0 0 0 0 0 127 0" result="hardAlpha"/>
<feOffset dy="4"/>
<feGaussianBlur stdDeviation="18.65"/>
<feComposite in2="hardAlpha" operator="arithmetic" k2="-1" k3="1"/>
<feColorMatrix type="matrix" values="0 0 0 0 0.270588 0 0 0 0 0.270588 0 0 0 0 0.270588 0 0 0 0.1 0"/>
<feBlend mode="normal" in2="shape" result="effect2_innerShadow_c3_169638"/>
<feColorMatrix in="SourceAlpha" type="matrix" values="0 0 0 0 0 0 0 0 0 0 0 0 0 0 0 0 0 0 127 0" result="hardAlpha"/>
<feOffset dy="10"/>
<feGaussianBlur stdDeviation="5"/>
<feComposite in2="hardAlpha" operator="arithmetic" k2="-1" k3="1"/>
<feColorMatrix type="matrix" values="0 0 0 0 0.270588 0 0 0 0 0.270588 0 0 0 0 0.270588 0 0 0 0.05 0"/>
<feBlend mode="normal" in2="effect2_innerShadow_c3_169638" result="effect3_innerShadow_c3_169638"/>
<feColorMatrix in="SourceAlpha" type="matrix" values="0 0 0 0 0 0 0 0 0 0 0 0 0 0 0 0 0 0 127 0" result="hardAlpha"/>
<feOffset dy="2"/>
<feGaussianBlur stdDeviation="1.5"/>
<feComposite in2="hardAlpha" operator="arithmetic" k2="-1" k3="1"/>
<feColorMatrix type="matrix" values="0 0 0 0 0.270588 0 0 0 0 0.270588 0 0 0 0 0.270588 0 0 0 0.2 0"/>
<feBlend mode="normal" in2="effect3_innerShadow_c3_169638" result="effect4_innerShadow_c3_169638"/>
</filter>
<clipPath id="bgblur_11_c3_169638_clip_path" transform="translate(-333.734 -173)"><path d="M367.734 221C367.734 213.268 374.002 207 381.734 207H515.734C523.466 207 529.734 213.268 529.734 221C529.734 228.732 523.466 235 515.734 235H381.734C374.002 235 367.734 228.732 367.734 221Z"/>
</clipPath><filter id="filter13_diii_c3_169638" x="355.734" y="414" width="186" height="96" filterUnits="userSpaceOnUse" color-interpolation-filters="sRGB">
<feFlood flood-opacity="0" result="BackgroundImageFix"/>
<feColorMatrix in="SourceAlpha" type="matrix" values="0 0 0 0 0 0 0 0 0 0 0 0 0 0 0 0 0 0 127 0" result="hardAlpha"/>
<feMorphology radius="23.04" operator="erode" in="SourceAlpha" result="effect1_dropShadow_c3_169638"/>
<feOffset dy="15.08"/>
<feGaussianBlur stdDeviation="17.28"/>
<feComposite in2="hardAlpha" operator="out"/>
<feColorMatrix type="matrix" values="0 0 0 0 0.270588 0 0 0 0 0.270588 0 0 0 0 0.270588 0 0 0 0.4 0"/>
<feBlend mode="multiply" in2="BackgroundImageFix" result="effect1_dropShadow_c3_169638"/>
<feBlend mode="normal" in="SourceGraphic" in2="effect1_dropShadow_c3_169638" result="shape"/>
<feColorMatrix in="SourceAlpha" type="matrix" values="0 0 0 0 0 0 0 0 0 0 0 0 0 0 0 0 0 0 127 0" result="hardAlpha"/>
<feOffset dy="4"/>
<feGaussianBlur stdDeviation="18.65"/>
<feComposite in2="hardAlpha" operator="arithmetic" k2="-1" k3="1"/>
<feColorMatrix type="matrix" values="0 0 0 0 0.270588 0 0 0 0 0.270588 0 0 0 0 0.270588 0 0 0 0.1 0"/>
<feBlend mode="normal" in2="shape" result="effect2_innerShadow_c3_169638"/>
<feColorMatrix in="SourceAlpha" type="matrix" values="0 0 0 0 0 0 0 0 0 0 0 0 0 0 0 0 0 0 127 0" result="hardAlpha"/>
<feOffset dy="10"/>
<feGaussianBlur stdDeviation="5"/>
<feComposite in2="hardAlpha" operator="arithmetic" k2="-1" k3="1"/>
<feColorMatrix type="matrix" values="0 0 0 0 0.270588 0 0 0 0 0.270588 0 0 0 0 0.270588 0 0 0 0.05 0"/>
<feBlend mode="normal" in2="effect2_innerShadow_c3_169638" result="effect3_innerShadow_c3_169638"/>
<feColorMatrix in="SourceAlpha" type="matrix" values="0 0 0 0 0 0 0 0 0 0 0 0 0 0 0 0 0 0 127 0" result="hardAlpha"/>
<feOffset dy="2"/>
<feGaussianBlur stdDeviation="1.5"/>
<feComposite in2="hardAlpha" operator="arithmetic" k2="-1" k3="1"/>
<feColorMatrix type="matrix" values="0 0 0 0 0.270588 0 0 0 0 0.270588 0 0 0 0 0.270588 0 0 0 0.2 0"/>
<feBlend mode="normal" in2="effect3_innerShadow_c3_169638" result="effect4_innerShadow_c3_169638"/>
</filter>
<clipPath id="bgblur_12_c3_169638_clip_path" transform="translate(-355.734 -414)"><path d="M389.734 462C389.734 454.268 396.002 448 403.734 448H493.734C501.466 448 507.734 454.268 507.734 462C507.734 469.732 501.466 476 493.734 476H403.734C396.002 476 389.734 469.732 389.734 462Z"/>
</clipPath><linearGradient id="paint0_linear_c3_169638" x1="347.5" y1="350" x2="353.155" y2="364.276" gradientUnits="userSpaceOnUse">
<stop stop-color="white" stop-opacity="0.4"/>
<stop offset="0.4" stop-color="white" stop-opacity="0.01"/>
<stop offset="0.6" stop-color="white" stop-opacity="0.01"/>
<stop offset="1" stop-color="white" stop-opacity="0.1"/>
</linearGradient>
<linearGradient id="paint1_linear_c3_169638" x1="348" y1="253" x2="353.22" y2="266.177" gradientUnits="userSpaceOnUse">
<stop stop-color="white" stop-opacity="0.4"/>
<stop offset="0.4" stop-color="white" stop-opacity="0.01"/>
<stop offset="0.6" stop-color="white" stop-opacity="0.01"/>
<stop offset="1" stop-color="white" stop-opacity="0.1"/>
</linearGradient>
<linearGradient id="paint2_linear_c3_169638" x1="531.734" y1="351" x2="536.955" y2="364.177" gradientUnits="userSpaceOnUse">
<stop stop-color="white" stop-opacity="0.4"/>
<stop offset="0.4" stop-color="white" stop-opacity="0.01"/>
<stop offset="0.6" stop-color="white" stop-opacity="0.01"/>
<stop offset="1" stop-color="white" stop-opacity="0.1"/>
</linearGradient>
<linearGradient id="paint3_linear_c3_169638" x1="303.734" y1="350" x2="308.955" y2="363.177" gradientUnits="userSpaceOnUse">
<stop stop-color="white" stop-opacity="0.4"/>
<stop offset="0.4" stop-color="white" stop-opacity="0.01"/>
<stop offset="0.6" stop-color="white" stop-opacity="0.01"/>
<stop offset="1" stop-color="white" stop-opacity="0.1"/>
</linearGradient>
<linearGradient id="paint4_linear_c3_169638" x1="326.734" y1="420" x2="331.955" y2="433.177" gradientUnits="userSpaceOnUse">
<stop stop-color="white" stop-opacity="0.4"/>
<stop offset="0.4" stop-color="white" stop-opacity="0.01"/>
<stop offset="0.6" stop-color="white" stop-opacity="0.01"/>
<stop offset="1" stop-color="white" stop-opacity="0.1"/>
</linearGradient>
<linearGradient id="paint5_linear_c3_169638" x1="383.734" y1="319" x2="388.955" y2="332.177" gradientUnits="userSpaceOnUse">
<stop stop-color="white" stop-opacity="0.4"/>
<stop offset="0.4" stop-color="white" stop-opacity="0.01"/>
<stop offset="0.6" stop-color="white" stop-opacity="0.01"/>
<stop offset="1" stop-color="white" stop-opacity="0.1"/>
</linearGradient>
<linearGradient id="paint6_linear_c3_169638" x1="343.734" y1="253" x2="348.955" y2="266.177" gradientUnits="userSpaceOnUse">
<stop stop-color="white" stop-opacity="0.4"/>
<stop offset="0.4" stop-color="white" stop-opacity="0.01"/>
<stop offset="0.6" stop-color="white" stop-opacity="0.01"/>
<stop offset="1" stop-color="white" stop-opacity="0.1"/>
</linearGradient>
<linearGradient id="paint7_linear_c3_169638" x1="531.734" y1="322" x2="536.955" y2="335.177" gradientUnits="userSpaceOnUse">
<stop stop-color="white" stop-opacity="0.4"/>
<stop offset="0.4" stop-color="white" stop-opacity="0.01"/>
<stop offset="0.6" stop-color="white" stop-opacity="0.01"/>
<stop offset="1" stop-color="white" stop-opacity="0.1"/>
</linearGradient>
<linearGradient id="paint8_linear_c3_169638" x1="448.734" y1="249" x2="457.435" y2="270.962" gradientUnits="userSpaceOnUse">
<stop stop-color="white" stop-opacity="0.4"/>
<stop offset="0.4" stop-color="white" stop-opacity="0.01"/>
<stop offset="0.6" stop-color="white" stop-opacity="0.01"/>
<stop offset="1" stop-color="white" stop-opacity="0.1"/>
</linearGradient>
<linearGradient id="paint9_linear_c3_169638" x1="448.734" y1="414" x2="457.435" y2="435.962" gradientUnits="userSpaceOnUse">
<stop stop-color="white" stop-opacity="0.4"/>
<stop offset="0.4" stop-color="white" stop-opacity="0.01"/>
<stop offset="0.6" stop-color="white" stop-opacity="0.01"/>
<stop offset="1" stop-color="white" stop-opacity="0.1"/>
</linearGradient>
<linearGradient id="paint10_linear_c3_169638" x1="449" y1="309" x2="449" y2="373" gradientUnits="userSpaceOnUse">
<stop stop-color="#E8E8E8"/>
<stop offset="1" stop-color="#A2A2A2"/>
</linearGradient>
<linearGradient id="paint11_linear_c3_169638" x1="449" y1="309" x2="449" y2="373" gradientUnits="userSpaceOnUse">
<stop stop-color="#E5E3E7"/>
<stop offset="1" stop-color="#E5E3E7" stop-opacity="0"/>
</linearGradient>
<linearGradient id="paint12_linear_c3_169638" x1="448.734" y1="207" x2="448.734" y2="235" gradientUnits="userSpaceOnUse">
<stop stop-color="#E8E8E8"/>
<stop offset="1" stop-color="#A2A2A2"/>
</linearGradient>
<linearGradient id="paint13_linear_c3_169638" x1="448.734" y1="207" x2="448.734" y2="235" gradientUnits="userSpaceOnUse">
<stop stop-color="#E5E3E7"/>
<stop offset="1" stop-color="#E5E3E7" stop-opacity="0"/>
</linearGradient>
<linearGradient id="paint14_linear_c3_169638" x1="448.734" y1="448" x2="448.734" y2="476" gradientUnits="userSpaceOnUse">
<stop stop-color="#E8E8E8"/>
<stop offset="1" stop-color="#A2A2A2"/>
</linearGradient>
<linearGradient id="paint15_linear_c3_169638" x1="448.734" y1="448" x2="448.734" y2="476" gradientUnits="userSpaceOnUse">
<stop stop-color="#E5E3E7"/>
<stop offset="1" stop-color="#E5E3E7" stop-opacity="0"/>
</linearGradient>
</defs>
</svg>
