<svg preserveAspectRatio="none" width="100%" height="100%" overflow="visible" style="display: block;" viewBox="0 0 16.9207 16" fill="none" xmlns="http://www.w3.org/2000/svg">
<g id="Group 3148">
<path id="Ellipse 9" d="M10.0606 7.92522C10.0606 8.80943 9.34386 9.52623 8.45973 9.52623C7.57561 9.52623 6.85888 8.80943 6.85888 7.92522C6.85888 7.04101 7.57561 6.32422 8.45973 6.32422C9.34386 6.32422 10.0606 7.04101 10.0606 7.92522Z" fill="var(--fill-0, #FAFAFA)"/>
<g id="Group 3147">
<path id="Subtract" d="M4.20376 9.13833C4.48466 10.1832 5.14281 11.0733 6.02325 11.6537C6.70954 12.1061 7.28838 12.7946 7.28838 13.6166V16C7.13221 15.476 6.68576 15.0615 6.1442 14.8819C3.99301 14.1687 2.28891 12.4749 1.56138 10.3301C1.33409 9.66006 0.746457 9.13833 0.0389584 9.13833H4.20376ZM7.28838 3.77687C5.74846 4.19091 4.54461 5.42466 4.17323 6.98172H0C0.716608 6.98171 1.30891 6.44706 1.52967 5.76523C2.23863 3.57543 3.96136 1.84189 6.14431 1.1182C6.68589 0.938644 7.13224 0.524017 7.28838 0V3.77687Z" fill="var(--fill-0, #FAFAFA)"/>
<path id="Subtract_2" d="M12.7169 9.13833C12.436 10.1832 11.7778 11.0733 10.8974 11.6537C10.2111 12.1061 9.63227 12.7946 9.63227 13.6166V16C9.78844 15.476 10.2349 15.0615 10.7765 14.8819C12.9276 14.1687 14.6317 12.4749 15.3593 10.3301C15.5866 9.66007 16.1742 9.13833 16.8817 9.13833H12.7169ZM9.63227 3.77687C11.1722 4.19091 12.376 5.42466 12.7474 6.98172H16.9206C16.204 6.98171 15.6117 6.44706 15.391 5.76523C14.682 3.57543 12.9593 1.84189 10.7763 1.1182C10.2348 0.938644 9.7884 0.524017 9.63227 0V3.77687Z" fill="var(--fill-0, #FAFAFA)"/>
</g>
</g>
</svg>
